<svg width="478" height="319" viewBox="0 0 478 319" fill="none" xmlns="http://www.w3.org/2000/svg">
<g clip-path="url(#clip0_2_91)">
<path d="M118.324 197.264C119.697 232.14 194.081 296.325 275.16 262.36C312.868 246.562 307.686 226.711 334.734 197.364C350.856 179.873 375.031 165.52 379.909 141.84C384.124 121.4 378.393 100.394 366.553 87.4932C339.923 58.4807 290.071 41.5859 247.544 95.2375C205.017 148.889 114.793 107.318 118.324 197.264Z" fill="url(#paint0_linear_2_91)"/>
<path d="M104.372 103.223C110.877 114.844 125.123 116.44 147.946 114.232C165.11 112.568 180.763 111.28 197.929 101.911C209.943 95.3587 219.454 86.4931 226.396 77.8823C233.918 68.5536 244.417 57.9075 239.27 47.3306C232.197 32.8012 191.293 20.5643 151.574 40.5757C107.942 62.5644 98.0086 91.8646 104.372 103.223Z" fill="url(#paint1_linear_2_91)"/>
<path d="M51.4503 138.084C68.3131 146.457 90.6941 135.69 90.6941 135.69C90.6941 135.69 85.7203 111.352 68.8485 102.99C51.9857 94.6165 29.6137 105.372 29.6137 105.372C29.6137 105.372 34.5875 129.71 51.4503 138.084Z" fill="url(#paint2_linear_2_91)"/>
<path d="M429.284 164.171C420.123 169.668 406.978 164.586 406.978 164.586C406.978 164.586 408.697 150.595 417.864 145.105C427.026 139.608 440.165 144.683 440.165 144.683C440.165 144.683 438.446 158.674 429.284 164.171Z" fill="url(#paint3_linear_2_91)"/>
<path d="M93.2647 257.742C96.1252 257.742 98.4441 255.421 98.4441 252.557C98.4441 249.694 96.1252 247.372 93.2647 247.372C90.4042 247.372 88.0853 249.694 88.0853 252.557C88.0853 255.421 90.4042 257.742 93.2647 257.742Z" fill="#E1E4E5"/>
<path d="M430.578 221.625C434.71 221.625 438.059 218.272 438.059 214.136C438.059 210 434.71 206.647 430.578 206.647C426.446 206.647 423.097 210 423.097 214.136C423.097 218.272 426.446 221.625 430.578 221.625Z" fill="#E1E4E5"/>
<path d="M66.8903 206.997C70.0347 206.997 72.5838 204.446 72.5838 201.298C72.5838 198.15 70.0347 195.599 66.8903 195.599C63.7458 195.599 61.1967 198.15 61.1967 201.298C61.1967 204.446 63.7458 206.997 66.8903 206.997Z" fill="#E1E4E5"/>
<path d="M98.7665 56.6241C102.263 56.6241 105.097 53.787 105.097 50.2872C105.097 46.7874 102.263 43.9502 98.7665 43.9502C95.2704 43.9502 92.4362 46.7874 92.4362 50.2872C92.4362 53.787 95.2704 56.6241 98.7665 56.6241Z" fill="#E1E4E5"/>
<path d="M445.387 90.3073C445.387 93.45 447.932 95.9977 451.071 95.9977C454.211 95.9977 456.756 93.45 456.756 90.3073C456.756 87.1646 454.211 84.6169 451.071 84.6169C447.932 84.6169 445.387 87.1646 445.387 90.3073Z" fill="#E1E4E5"/>
<path d="M284.436 43.0804C288.612 43.0804 291.998 39.6913 291.998 35.5105C291.998 31.3298 288.612 27.9407 284.436 27.9407C280.26 27.9407 276.874 31.3298 276.874 35.5105C276.874 39.6913 280.26 43.0804 284.436 43.0804Z" fill="#E1E4E5"/>
<path d="M87.6137 174.385C90.8265 174.385 93.4309 172.299 93.4309 169.727C93.4309 167.154 90.8265 165.068 87.6137 165.068C84.4009 165.068 81.7964 167.154 81.7964 169.727C81.7964 172.299 84.4009 174.385 87.6137 174.385Z" fill="#E1E4E5"/>
<path d="M387.542 56.5332H387.459C386.969 63.4932 381.798 63.6001 381.798 63.6001C381.798 63.6001 387.5 63.7117 387.5 71.7537C387.5 63.7117 393.201 63.6001 393.201 63.6001C393.201 63.6001 388.033 63.4932 387.542 56.5332ZM396.205 238.716H396.125C395.654 245.654 390.69 245.761 390.69 245.761C390.69 245.761 396.164 245.872 396.164 253.891C396.164 245.872 401.638 245.761 401.638 245.761C401.638 245.761 396.676 245.654 396.205 238.716Z" fill="#E1E4E5"/>
<path d="M238.71 290.545C310.854 290.545 369.338 232 369.338 159.781C369.338 87.5615 310.854 29.0162 238.71 29.0162C166.566 29.0162 108.082 87.5615 108.082 159.781C108.082 232 166.566 290.545 238.71 290.545Z" fill="#666AF6"/>
<mask id="mask0_2_91" style="mask-type:alpha" maskUnits="userSpaceOnUse" x="108" y="29" width="262" height="262">
<path d="M238.628 290.545C310.772 290.545 369.256 232 369.256 159.781C369.256 87.5615 310.772 29.0162 238.628 29.0162C166.484 29.0162 108 87.5615 108 159.781C108 232 166.484 290.545 238.628 290.545Z" fill="#666AF6"/>
</mask>
<g mask="url(#mask0_2_91)">
<path d="M308.493 101.017H169.342C157.609 101.017 148.098 110.538 148.098 122.283V272.213C148.098 283.959 157.609 293.48 169.342 293.48H308.493C320.226 293.48 329.738 283.959 329.738 272.213V122.283C329.738 110.538 320.226 101.017 308.493 101.017Z" fill="white"/>
<path d="M195.647 202.305H282.133M195.647 225.792H282.133M209.707 249.352H268.129" stroke="#E1E4E5" stroke-width="14.431" stroke-linecap="round" stroke-linejoin="round"/>
<path d="M269.248 137.17L230.973 175.415L208.008 152.468" stroke="#666AF6" stroke-width="27.44" stroke-linecap="round" stroke-linejoin="round"/>
</g>
</g>
<defs>
<linearGradient id="paint0_linear_2_91" x1="218.826" y1="397.639" x2="292.045" y2="-186.759" gradientUnits="userSpaceOnUse">
<stop stop-color="white"/>
<stop offset="1" stop-color="#EEEEEE"/>
</linearGradient>
<linearGradient id="paint1_linear_2_91" x1="148.192" y1="178.538" x2="206.286" y2="-82.2369" gradientUnits="userSpaceOnUse">
<stop stop-color="white"/>
<stop offset="1" stop-color="#EEEEEE"/>
</linearGradient>
<linearGradient id="paint2_linear_2_91" x1="116.205" y1="164.203" x2="-22.9911" y2="54.2132" gradientUnits="userSpaceOnUse">
<stop stop-color="white"/>
<stop offset="1" stop-color="#EEEEEE"/>
</linearGradient>
<linearGradient id="paint3_linear_2_91" x1="393.831" y1="181.865" x2="467.621" y2="113.376" gradientUnits="userSpaceOnUse">
<stop stop-color="white"/>
<stop offset="1" stop-color="#EEEEEE"/>
</linearGradient>
<clipPath id="clip0_2_91">
<rect width="478" height="319" fill="white"/>
</clipPath>
</defs>
</svg>
